# xmcd
# Track frame offsets:
# 150
# 12912
# 29667
# 41250
# 53327
# 64750
# 74862
# 88230
# 101642
# 114275
# 125117
# 137957
# 150802
# 163677
# 174877
# 187787
# 198662
# 209820
# 228007
# 240272
#
# Disc length: 3354 seconds
# Revision: 1
# Processed by: cddbd v1.4PL0 Copyright (c) Steve Scherf et al.
# Submitted via: VisiTrax 2.9.5.180 - For more info visit www.synapsa.com
#
DISCID=0d0d1814
DTITLE=Various Artist - Country Complete  Volume 3
DYEAR=1997
DGENRE=Country
TTITLE0=Susan Raye - LA International Airport
TTITLE1=Johnny Cash - A Boy Named Sue
TTITLE2=Wanda Jackson - In The Middle Of A Heartache
TTITLE3=Glen Campbell - Galveston
TTITLE4=Donna Fargo - The Happiest Girl In The Whole USA
TTITLE5=Willie Nelson - Touch Me
TTITLE6=Charlie Rich - Behind Closed Doors
TTITLE7=Crystal Gayle - Why Have You Left The One You Left Me For
TTITLE8=The Bellamy Brothers - Let Your Love Flow
TTITLE9=Faron Young - Hello Walls
TTITLE10=Bobby Bare - Four Strong Winds
TTITLE11=Bob Luman - The Great Snowman
TTITLE12=Billie Jo Spears - 57 Chevrolet
TTITLE13=Bobby Darin - Your The Reason I'm Living
TTITLE14=Patsy Cline - I Fall To Pieces
TTITLE15=Jim Reeves - Hell Have To Go
TTITLE16=Johnny Tillotson - I Can't Help It If I'm Still In Love With You
TTITLE17=Don Williams - I Believe In You
TTITLE18=Roy Clarke - The Tips Of My Fingers
TTITLE19=Sonny James - Young Love
EXTD=EMI
EXTT0=
EXTT1=
EXTT2=
EXTT3=
EXTT4=
EXTT5=
EXTT6=
EXTT7=
EXTT8=
EXTT9=
EXTT10=
EXTT11=
EXTT12=
EXTT13=
EXTT14=
EXTT15=
EXTT16=
EXTT17=
EXTT18=
EXTT19=
PLAYORDER=
